<?xml version="1.0" encoding="UTF-8"?>
<svg width="752pt" height="752pt" version="1.1" viewBox="0 0 752 752" xmlns="http://www.w3.org/2000/svg">
 <g fill="#676767">
  <path d="m405.41 248.45c0 15.43-12.508 27.938-27.938 27.938-15.43 0-27.938-12.508-27.938-27.938s12.508-27.938 27.938-27.938c15.43 0 27.938 12.508 27.938 27.938"/>
  <path d="m405.41 376.16c0 15.43-12.508 27.938-27.938 27.938-15.43 0-27.938-12.508-27.938-27.938 0-15.43 12.508-27.938 27.938-27.938 15.43 0 27.938 12.508 27.938 27.938"/>
  <path d="m377.47 475.89c-15.441 0-27.938 12.496-27.938 27.938s12.496 27.938 27.938 27.938 27.938-12.496 27.938-27.938-12.496-27.938-27.938-27.938z"/>
 </g>
</svg>
