<?xml version="1.0" encoding="utf-8"?>
<!-- Generator: Adobe Illustrator 26.0.0, SVG Export Plug-In . SVG Version: 6.00 Build 0)  -->
<svg version="1.1" id="Layer_1" xmlns="http://www.w3.org/2000/svg" xmlns:xlink="http://www.w3.org/1999/xlink" x="0px" y="0px"
	 viewBox="0 0 512 512" style="enable-background:new 0 0 512 512;" xml:space="preserve">
<style type="text/css">
	.st0{fill:#595959;}
	.st1{fill:#B9D8E0;}
</style>
<g>
	<g id="XMLID_00000181788721296635759250000008663759040140229553_">
		<g>
			<path class="st0" d="M398.3,121.7c1.6,1.6,2.4,3.9,2.2,6.1c-0.2,2.3-6.2,56.6-37.1,87.4c-10.6,10.6-24.1,16-36.9,16
				c-7.6,0-15-2-21.2-5.9l-41.9,42v29.1v32.7h89.2c4.1,0,7.5,3.4,7.5,7.5s-3.4,7.5-7.5,7.5h-9L336.9,475
				c-0.7,12.5-11,22.4-23.7,22.4H198.7c-12.6,0-23-9.9-23.7-22.4l-6.9-130.8h-9c-4.1,0-7.5-3.4-7.5-7.5s3.4-7.5,7.5-7.5h89.2v-29.6
				l-41.9-41.9c-6.2,4-13.6,5.9-21.1,5.9c-12.7,0-26.3-5.5-36.9-16c-30.8-30.8-36.9-85.1-37.1-87.4c-0.3-2.3,0.6-4.5,2.2-6.1
				c1.6-1.6,3.9-2.5,6.1-2.2c2.3,0.3,56.6,6.2,87.4,37.1c17,17,20.7,41.4,10.1,58.1l31.2,31.2v-14V162.4l-24.3-24.3
				c-5.1,3-11,4.5-17.1,4.5c-10.7,0-22.2-4.6-31.1-13.5c-25.5-25.5-32-71.7-32.2-73.6c-0.3-2.4,0.5-4.7,2.2-6.4s4.1-2.5,6.3-2.2
				c2,0.3,48.2,6.8,73.6,32.2c14,14,17.3,34.1,9.1,48.2l14,14c1.3-12.7,6.9-24.6,16.1-33.8l12.4-12.4c-8.3-14-5-34.2,9.1-48.2
				c25.5-25.5,71.7-32,73.6-32.2c2.4-0.3,4.7,0.5,6.3,2.2c1.7,1.7,2.5,4.1,2.2,6.3c-0.3,2-6.8,48.1-32.2,73.6
				c-9,9-20.4,13.5-31.1,13.5c-6.1,0-12-1.5-17.1-4.5l-12.4,12.4c-7.7,7.7-12,17.9-12,28.9v12.3v86.6l31.2-31.2
				c-10.7-16.6-6.9-41.1,10.1-58.1c30.8-30.8,85.1-36.9,87.4-37.1C394.5,119.3,396.7,120.1,398.3,121.7z M384,136.1
				C384,136.1,383.9,136.1,384,136.1C383.9,136.1,383.9,136.1,384,136.1c-7.6,1.4-18.8,4.1-30.5,8.4c-2.4,0.8-4.7,1.8-7.1,2.8
				c-2.5,1-4.9,2.3-7.4,3.5c-8.5,4.3-16.7,9.7-23.5,16.4c-2,2-3.7,4.1-5.2,6.2c-0.5,0.8-1,1.5-1.4,2.3c-5.6,9.2-6.8,19.8-3.2,27.9
				l41.6-41.6c2.9-2.9,7.7-2.9,10.7,0c2.4,2.4,2.8,5.8,1.4,8.7c-0.4,0.7-0.8,1.2-1.3,1.8L316.6,214h0.1l-0.2,0.2
				c6.6,2.9,14.8,2.6,22.7-0.6c0.7-0.3,1.2-0.6,1.9-0.8c4.1-2,8.2-4.7,11.8-8.3C372.6,184.8,380.9,152.3,384,136.1z M351.3,31.7
				L351.3,31.7L351.3,31.7c-0.9,0.2-1.9,0.4-2.7,0.7c-1.5,0.4-3,0.8-4.7,1.2c-14.3,4-34.1,11.3-47,24c-2.5,2.5-4.5,5.4-6,8.3
				c-0.1,0.1-0.2,0.3-0.2,0.4c-3,5.9-3.8,12.3-2.2,17.5l26.6-26.6c2.9-2.9,7.7-2.9,10.7,0c1.3,1.3,2,2.9,2.2,4.6
				c0,0.5,0.1,0.9,0,1.3c-0.2,1.7-0.8,3.3-2.2,4.6l-26.6,26.6h0.1l-0.1,0.1c3,0.9,6.3,1,9.8,0.5c0.4-0.1,0.8-0.2,1.1-0.2
				c5.3-1.1,10.7-4.1,15.3-8.6C340.4,71,348,45.9,351.3,31.7z M327.7,361.3l0.9-17.2H183.3l0.9,17.2H327.7z M321.8,474.2l5.2-97.7
				H185l5.1,97.7c0.3,4.5,4,8.1,8.6,8.1h114.6C317.8,482.3,321.5,478.7,321.8,474.2z M223.6,115.4c2-7.5-0.7-16.9-7.4-24.3
				c-0.4-0.4-0.8-0.8-1.1-1.1c-3.3-3.3-7.1-6.2-11.1-8.9c-14.4-9.3-32.2-14.5-43.2-17.2V64c-0.1,0-0.1,0-0.1,0
				c3.2,14.1,10.8,39.3,25.9,54.4c7.8,7.8,18.2,10.7,26.1,8.4l-0.1-0.1c0.1,0,0.1,0,0.2,0l-26.6-26.6c-2.9-2.9-2.9-7.7-0.1-10.6
				c2.9-2.8,7.7-2.8,10.6,0.1l26.7,26.5C223.5,115.8,223.5,115.5,223.6,115.4z M207.6,230.9c0.6-2.7,0.7-5.6,0.3-8.5
				c0-0.3-0.1-0.6-0.1-0.8c-0.6-4.2-2.1-8.6-4.3-12.6c-1.8-3.3-4.2-6.5-7.1-9.3c-19.7-19.8-52.1-28.1-68.4-31.3v0.1l0,0
				c3.1,16.2,11.4,48.6,31.2,68.4c10.8,10.8,25.6,14.4,36.2,9.7l-0.1-0.1c0,0,0,0,0.1,0l-41.5-41.6c-1.3-1.3-2-2.9-2.2-4.6
				c-0.1-0.5-0.1-0.9,0-1.3c0.2-1.7,0.8-3.3,2.2-4.6c2.9-2.9,7.7-2.9,10.7,0l41.6,41.5c0.2-0.4,0.3-0.8,0.5-1.1
				c0.2-0.4,0.3-0.8,0.4-1.2C207.2,232.6,207.5,231.7,207.6,230.9z"/>
			<path class="st1" d="M353.5,144.6c11.7-4.4,22.8-7,30.5-8.4l0,0C376.3,137.6,365.1,140.2,353.5,144.6z"/>
			<path class="st1" d="M383.9,136.1c-3.1,16.2-11.4,48.6-31.2,68.4c-3.6,3.6-7.5,6.3-11.7,8.3c-0.7,0.3-1.2,0.6-1.9,0.8
				c-7.8,3.2-16,3.4-22.5,0.5l41.3-41.3c0.6-0.6,1-1.2,1.4-2c1.5-2.8,1.1-6.5-1.3-8.9c-2.9-2.9-7.7-2.9-10.7,0l-41.6,41.6
				c-3.6-8-2.4-18.4,3.1-27.7c0.5-0.8,0.9-1.5,1.4-2.3c1.5-2.1,3.2-4.1,5.1-6c6.8-6.8,15-12.3,23.6-16.7c2.5-1.2,4.9-2.4,7.4-3.5
				c2.4-1,4.7-2,7.1-2.8C365.1,140.2,376.3,137.6,383.9,136.1z"/>
			<path class="st1" d="M353.5,144.6c-2.4,0.8-4.7,1.8-7.1,2.8C348.7,146.4,351.1,145.4,353.5,144.6z"/>
			<path class="st1" d="M351.2,31.7L351.2,31.7c-0.8,0.2-1.8,0.4-2.6,0.7C349.4,32.1,350.3,31.9,351.2,31.7z"/>
			<path class="st1" d="M348.6,32.4c0.9-0.2,1.8-0.5,2.6-0.7C348,45.9,340.4,71,325.3,86.1c-4.5,4.5-9.9,7.4-15.2,8.6
				c-0.4,0.1-0.8,0.2-1.1,0.2c-3.4,0.6-6.7,0.4-9.7-0.6l26.5-26.4c1.3-1.3,2-3,2.2-4.7c0.1-0.5,0-0.9,0-1.3
				c-0.1-1.7-0.8-3.4-2.2-4.7c-2.9-2.9-7.7-2.9-10.7,0l-26.6,26.6c-1.5-5.3-0.8-11.5,2.2-17.4c0.1-0.1,0.1-0.3,0.2-0.4
				c1.5-2.9,3.5-5.7,6-8.1c12.7-12.8,32.6-20.2,47-24.1C345.4,33.1,347,32.8,348.6,32.4z"/>
			<path class="st1" d="M316.7,214.1c6.5,2.9,14.7,2.7,22.5-0.5c-7.8,3.2-16,3.5-22.7,0.6L316.7,214.1z"/>
			<path class="st1" d="M299.2,94.4c3,0.9,6.3,1.1,9.7,0.6C305.5,95.6,302.2,95.5,299.2,94.4L299.2,94.4z"/>
			<path class="st1" d="M347.3,162.1l-41.6,41.6c-3.6-8.1-2.4-18.6,3.2-27.9c-5.5,9.2-6.7,19.6-3.1,27.7l41.6-41.6
				c2.9-2.9,7.7-2.9,10.7,0c2.4,2.4,2.8,6,1.3,8.9c1.4-2.8,0.9-6.4-1.4-8.7C355.1,159.2,350.2,159.2,347.3,162.1z"/>
			<path class="st1" d="M288.5,83.8l26.6-26.6c2.9-2.9,7.7-2.9,10.7,0c1.3,1.3,2,3,2.2,4.7c-0.2-1.7-0.8-3.3-2.2-4.6
				c-2.9-2.9-7.7-2.9-10.7,0L288.5,83.8c-1.6-5.2-0.8-11.6,2.2-17.4C287.6,72.3,287,78.6,288.5,83.8z"/>
			<path class="st1" d="M215,89.9c0.4,0.4,0.8,0.8,1.1,1.1c6.8,7.4,9.3,16.9,7.4,24.3c-0.1,0.2-0.1,0.5-0.2,0.7l-26.6-26.6
				c-2.9-2.9-7.7-2.9-10.7,0c0,0,0,0-0.1,0c0,0,0,0-0.1,0.1c-2.9,2.9-2.9,7.7,0,10.7l26.5,26.5c-8,2.4-18.3-0.7-25.9-8.4
				c-15-15.1-22.5-40.2-25.9-54.3c11,2.5,28.8,7.7,43.2,17.1C208,83.7,211.7,86.6,215,89.9z"/>
			<path class="st1" d="M207,233.4c0.3-0.8,0.5-1.6,0.7-2.5C207.5,231.7,207.2,232.6,207,233.4z"/>
			<path class="st1" d="M206.6,234.6c0.2-0.4,0.3-0.8,0.4-1.2C206.8,233.8,206.8,234.2,206.6,234.6z"/>
			<path class="st1" d="M196.4,199.6c2.9,2.9,5.3,6,7.1,9.3c2.3,4.1,3.8,8.5,4.3,12.6c0,0.3,0.1,0.6,0.1,0.8
				c0.4,2.9,0.2,5.8-0.3,8.5c-0.2,0.8-0.4,1.7-0.7,2.5c-0.1,0.4-0.3,0.8-0.4,1.2c-0.1,0.4-0.3,0.8-0.5,1.1l-41.6-41.5
				c-2.9-2.9-7.7-2.9-10.7,0c-1.3,1.3-2,3-2.2,4.7c-0.1,0.5-0.1,0.9,0,1.3c0.1,1.7,0.8,3.4,2.2,4.7l41.4,41.5
				c-10.7,4.6-25.4,1-36.1-9.7c-19.7-19.7-28.1-52.1-31.2-68.4C144.1,171.5,176.7,179.8,196.4,199.6z"/>
			<path class="st1" d="M160.7,63.9c11,2.6,28.8,7.8,43.2,17.2C189.5,71.7,171.8,66.6,160.7,63.9C160.7,64,160.7,63.9,160.7,63.9z"
				/>
			<path class="st1" d="M186.1,89.4c-2.9,2.9-2.8,7.7,0.1,10.6l26.6,26.6c-0.1,0-0.1,0-0.2,0l-26.5-26.5
				C183.2,97.3,183.2,92.4,186.1,89.4C186.1,89.5,186.1,89.5,186.1,89.4z"/>
			<path class="st1" d="M127.9,168.3c16.3,3.2,48.7,11.5,68.4,31.3C176.7,179.8,144.1,171.5,127.9,168.3
				C127.9,168.3,127.9,168.3,127.9,168.3z"/>
			<path class="st1" d="M153.9,204.8l41.5,41.6h-0.1L153.9,204.8c-1.3-1.2-2-2.9-2.2-4.6C151.9,201.9,152.5,203.5,153.9,204.8z"/>
		</g>
	</g>
</g>
</svg>
